<svg xmlns="http://www.w3.org/2000/svg" viewBox="0 0 840 1540" width="840" height="1540" style="background:#ffffff; font-family: -apple-system, BlinkMacSystemFont, 'Segoe UI', Roboto, Helvetica, Arial, sans-serif;">
  <defs>
    <pattern id="hatch_north" width="10" height="10" patternTransform="rotate(45 0 0)" patternUnits="userSpaceOnUse">
      <line x1="0" y1="0" x2="0" y2="10" stroke="#475569" stroke-width="2" />
    </pattern>
    <pattern id="wood_deck" width="12" height="12" patternUnits="userSpaceOnUse">
      <rect width="12" height="12" fill="#fef3c7" opacity="0.45"/>
      <line x1="0" y1="0" x2="12" y2="0" stroke="#d97706" stroke-width="0.8"/>
    </pattern>
    <marker id="tick" viewBox="0 0 10 10" refX="5" refY="5" markerWidth="6" markerHeight="6" orient="auto-start-reverse">
      <line x1="0" y1="10" x2="10" y2="0" stroke="#000000" stroke-width="2"/>
    </marker>
    <marker id="arrow" viewBox="0 0 10 10" refX="5" refY="5" markerWidth="6" markerHeight="6" orient="auto-start-reverse">
      <path d="M 0 1.5 L 8 5 L 0 8.5 z" fill="#0284c7"/>
    </marker>
  </defs>

  <!-- Title & Orientation Banner -->
  <text x="420" y="36" text-anchor="middle" font-size="22" font-weight="800" fill="#0f172a" letter-spacing="1">1ST &amp; 2ND FLOOR PLAN (3BHK + 6'×30' RAIN BALCONY)</text>
  <text x="420" y="58" text-anchor="middle" font-size="13" font-weight="600" fill="#64748b">30' × 60' • 7' REAR GALI W/ BATHROOMS • 6' FRONT BALCONY • PURE RECTANGULAR BEDROOMS</text>

  <!-- EXTERIOR DIMENSION LINES -->
  <!-- Top Dimension: 30' -->
  <line x1="120" y1="80" x2="720" y2="80" stroke="#000000" stroke-width="1.5" marker-start="url(#tick)" marker-end="url(#tick)" />
  <line x1="120" y1="70" x2="120" y2="100" stroke="#94a3b8" stroke-width="1" stroke-dasharray="3,3"/>
  <line x1="720" y1="70" x2="720" y2="100" stroke="#94a3b8" stroke-width="1" stroke-dasharray="3,3"/>
  <rect x="385" y="68" width="70" height="24" fill="#ffffff"/>
  <text x="420" y="86" text-anchor="middle" font-size="18" font-weight="800" fill="#000000">30'</text>

  <!-- Left Dimension: 60' -->
  <line x1="70" y1="100" x2="70" y2="1300" stroke="#000000" stroke-width="1.5" marker-start="url(#tick)" marker-end="url(#tick)" />
  <line x1="60" y1="100" x2="120" y2="100" stroke="#94a3b8" stroke-width="1" stroke-dasharray="3,3"/>
  <line x1="60" y1="1300" x2="120" y2="1300" stroke="#94a3b8" stroke-width="1" stroke-dasharray="3,3"/>
  <text x="50" y="700.0" text-anchor="middle" font-size="18" font-weight="800" fill="#000000" transform="rotate(-90 50 700.0)">60'</text>

  <!-- Right Dimension: 60' -->
  <line x1="770" y1="100" x2="770" y2="1300" stroke="#000000" stroke-width="1.5" marker-start="url(#tick)" marker-end="url(#tick)" />
  <line x1="760" y1="100" x2="720" y2="100" stroke="#94a3b8" stroke-width="1" stroke-dasharray="3,3"/>
  <line x1="760" y1="1300" x2="720" y2="1300" stroke="#94a3b8" stroke-width="1" stroke-dasharray="3,3"/>
  <text x="790" y="700.0" text-anchor="middle" font-size="18" font-weight="800" fill="#000000" transform="rotate(90 790 700.0)">60'</text>

  <!-- BUILDING PLOT BOUNDARY -->
  <rect x="120" y="100" width="600" height="1200" fill="#f8fafc" stroke="#000000" stroke-width="3.5" />

  <!-- 1. NORTH SOLID PLOT BOUNDARY WALL -->
  <rect x="120" y="100" width="600" height="14" fill="url(#hatch_north)" stroke="#0f172a" stroke-width="2.5" />
  <rect x="250" y="101" width="340" height="12" fill="#0f172a" rx="2"/>
  <text x="420" y="110" text-anchor="middle" font-size="8" font-weight="800" fill="#ffffff" letter-spacing="0.5">◄ NORTH SOLID COMPOUND / PLOT BOUNDARY WALL (NO OPENING) ►</text>

  <!-- 2. REAR GALI ZONE (30'0" x 7'0" = 600px x 140px, y = 114 to 254) -->
  <rect x="120" y="114" width="600" height="140" fill="#f0fdf4" stroke="#0284c7" stroke-width="1.5" stroke-dasharray="4,2" />
  
  <!-- A. BATHROOM 2 IN GALI (Attached to Bed 2: 6'0" x 7'0" = 120px x 140px, x = 120 to 240, y = 114 to 254) -->
  <rect x="120" y="114" width="120" height="140" fill="#f1f5f9" stroke="#000000" stroke-width="2.5" />
  <rect x="130" y="145" width="100" height="55" fill="#ffffff" stroke="#475569" stroke-width="1.2" rx="4"/>
  <text x="180" y="165" text-anchor="middle" font-size="11" font-weight="800" fill="#0f172a">A.BATH 2</text>
  <text x="180" y="180" text-anchor="middle" font-size="10" font-weight="700" fill="#0284c7">6'0" × 7'0"</text>
  <text x="180" y="193" text-anchor="middle" font-size="8.5" font-weight="600" fill="#16a34a">[IN REAR GALI]</text>
  <!-- Door from Bedroom 2 into Bath 2 (on North wall of Bed 2 at y = 254) -->
  <line x1="155" y1="254" x2="155" y2="230" stroke="#0284c7" stroke-width="2.5"/>
  <path d="M 155 230 A 24 24 0 0 1 179 254" fill="none" stroke="#0284c7" stroke-dasharray="2,2"/>
  <text x="180" y="245" font-size="8" font-weight="bold" fill="#0284c7">DOOR</text>
  <!-- Ventilation Louver/Window on East wall into central shaft -->
  <line x1="240" y1="160" x2="240" y2="210" stroke="#38bdf8" stroke-width="4"/>

  <!-- B. BATHROOM 3 IN GALI (Attached to Bed 3: 6'0" x 7'0" = 120px x 140px, x = 600 to 720, y = 114 to 254) -->
  <rect x="600" y="114" width="120" height="140" fill="#f1f5f9" stroke="#000000" stroke-width="2.5" />
  <rect x="610" y="145" width="100" height="55" fill="#ffffff" stroke="#475569" stroke-width="1.2" rx="4"/>
  <text x="660" y="165" text-anchor="middle" font-size="11" font-weight="800" fill="#0f172a">A.BATH 3</text>
  <text x="660" y="180" text-anchor="middle" font-size="10" font-weight="700" fill="#0284c7">6'0" × 7'0"</text>
  <text x="660" y="193" text-anchor="middle" font-size="8.5" font-weight="600" fill="#16a34a">[IN REAR GALI]</text>
  <!-- Door from Bedroom 3 into Bath 3 (on North wall of Bed 3 at y = 254) -->
  <line x1="685" y1="254" x2="685" y2="230" stroke="#0284c7" stroke-width="2.5"/>
  <path d="M 685 230 A 24 24 0 0 0 661 254" fill="none" stroke="#0284c7" stroke-dasharray="2,2"/>
  <text x="660" y="245" font-size="8" font-weight="bold" fill="#0284c7">DOOR</text>
  <!-- Ventilation Louver/Window on West wall into central shaft -->
  <line x1="600" y1="160" x2="600" y2="210" stroke="#38bdf8" stroke-width="4"/>

  <!-- C. CENTRAL OPEN-TO-SKY VENTILATION COURTYARD (18'0" x 7'0" = 360px x 140px, x = 240 to 600, y = 114 to 254) -->
  <rect x="240" y="114" width="360" height="140" fill="#e0f2fe" fill-opacity="0.5" stroke="none" />
  <rect x="260" y="145" width="320" height="60" fill="#ffffff" stroke="#0284c7" stroke-width="1.5" rx="6"/>
  <text x="420" y="168" text-anchor="middle" font-size="13" font-weight="900" fill="#0369a1">OPEN-TO-SKY VENTILATION GALI</text>
  <text x="420" y="186" text-anchor="middle" font-size="11.5" font-weight="800" fill="#0284c7">18'0" WIDE × 7'0" DEEP • NATURAL STACK EFFECT</text>
  <text x="420" y="199" text-anchor="middle" font-size="9" font-weight="600" fill="#475569">[Direct Bedroom Access Doors &amp; High-Velocity Air Circulation]</text>

  <!-- 7' Depth Dimension line in Gali -->
  <line x1="580" y1="114" x2="580" y2="254" stroke="#0284c7" stroke-width="1.2" marker-start="url(#tick)" marker-end="url(#tick)" />
  <text x="592" y="184" text-anchor="middle" font-size="10" font-weight="800" fill="#0284c7" transform="rotate(90 592 184)">7'0" GALI</text>

  <!-- 3. REAR BEDROOMS (PURE RECTANGLES: Depth 13'9" = 276px, y = 254 to 530) -->
  <line x1="420" y1="254" x2="420" y2="530" stroke="#000000" stroke-width="3" />
  <line x1="120" y1="530" x2="720" y2="530" stroke="#000000" stroke-width="3" />

  <!-- BEDROOM 2 (NW / Vayavya: 15'0" x 13'9" = 206 SQ FT PURE RECTANGLE) -->
  <rect x="120" y="254" width="300" height="276" fill="#ffffff" stroke="none" />
  <rect x="155" y="325" width="230" height="110" fill="#f8fafc" stroke="#e2e8f0" stroke-width="1.5" rx="6"/>
  <text x="270" y="355" text-anchor="middle" font-size="15" font-weight="800" fill="#000000">BEDROOM 2</text>
  <text x="270" y="378" text-anchor="middle" font-size="13.5" font-weight="800" fill="#0284c7">15'0" × 13'9"</text>
  <text x="270" y="398" text-anchor="middle" font-size="10.5" font-weight="700" fill="#16a34a">(206 SQ FT • PURE RECTANGLE)</text>
  <text x="270" y="416" text-anchor="middle" font-size="9" font-weight="600" fill="#475569">[Bath In Gali • Vayavya / NW]</text>
  <!-- Bedroom 2 Dimensions -->
  <line x1="135" y1="500" x2="405" y2="500" stroke="#000000" stroke-width="1" marker-start="url(#tick)" marker-end="url(#tick)" />
  <text x="270" y="495" text-anchor="middle" font-size="11" font-weight="700">15'0"</text>
  <line x1="405" y1="270" x2="405" y2="500" stroke="#000000" stroke-width="1" marker-start="url(#tick)" marker-end="url(#tick)" />
  <text x="390" y="385" text-anchor="middle" font-size="11" font-weight="700" transform="rotate(-90 390 385)">13'9"</text>
  <!-- Door from Bed 2 into Central Gali -->
  <line x1="330" y1="254" x2="330" y2="230" stroke="#0284c7" stroke-width="2"/>
  <path d="M 330 230 A 24 24 0 0 1 354 254" fill="none" stroke="#0284c7" stroke-dasharray="2,2"/>
  <text x="345" y="244" font-size="8" font-weight="bold" fill="#0284c7">GALI DR</text>
  <!-- Door from Hallway -->
  <line x1="375" y1="530" x2="375" y2="505" stroke="#000000" stroke-width="2"/>
  <path d="M 375 505 A 25 25 0 0 1 400 530" fill="none" stroke="#000000" stroke-dasharray="2,2"/>

  <!-- BEDROOM 3 (NE / Ishanya side: 15'0" x 13'9" = 206 SQ FT PURE RECTANGLE) -->
  <rect x="420" y="254" width="300" height="276" fill="#ffffff" stroke="none" />
  <rect x="455" y="325" width="230" height="110" fill="#f8fafc" stroke="#e2e8f0" stroke-width="1.5" rx="6"/>
  <text x="570" y="355" text-anchor="middle" font-size="15" font-weight="800" fill="#000000">BEDROOM 3</text>
  <text x="570" y="378" text-anchor="middle" font-size="13.5" font-weight="800" fill="#0284c7">15'0" × 13'9"</text>
  <text x="570" y="398" text-anchor="middle" font-size="10.5" font-weight="700" fill="#16a34a">(206 SQ FT • PURE RECTANGLE)</text>
  <text x="570" y="416" text-anchor="middle" font-size="9" font-weight="600" fill="#475569">[Bath In Gali • Ishanya Side]</text>
  <!-- Bedroom 3 Dimensions -->
  <line x1="435" y1="500" x2="705" y2="500" stroke="#000000" stroke-width="1" marker-start="url(#tick)" marker-end="url(#tick)" />
  <text x="570" y="495" text-anchor="middle" font-size="11" font-weight="700">15'0"</text>
  <line x1="435" y1="270" x2="435" y2="500" stroke="#000000" stroke-width="1" marker-start="url(#tick)" marker-end="url(#tick)" />
  <text x="450" y="385" text-anchor="middle" font-size="11" font-weight="700" transform="rotate(-90 450 385)">13'9"</text>
  <!-- Door from Bed 3 into Central Gali -->
  <line x1="510" y1="254" x2="510" y2="230" stroke="#0284c7" stroke-width="2"/>
  <path d="M 510 230 A 24 24 0 0 0 486 254" fill="none" stroke="#0284c7" stroke-dasharray="2,2"/>
  <text x="495" y="244" font-size="8" font-weight="bold" fill="#0284c7">GALI DR</text>
  <!-- Door from Hallway -->
  <line x1="465" y1="530" x2="465" y2="505" stroke="#000000" stroke-width="2"/>
  <path d="M 465 505 A 25 25 0 0 1 490 530" fill="none" stroke="#000000" stroke-dasharray="2,2"/>

  <!-- 4. MIDDLE CIRCULATION CORE (y = 530 to 780) -->
  
  <!-- A. LIFT ON BACKSIDE (x = 120 to 220, y = 530 to 630, 5'0" x 5'0") -->
  <rect x="120" y="530" width="100" height="100" fill="#e2e8f0" stroke="#000000" stroke-width="2.5" />
  <line x1="120" y1="530" x2="220" y2="630" stroke="#94a3b8" stroke-width="1.5"/>
  <line x1="220" y1="530" x2="120" y2="630" stroke="#94a3b8" stroke-width="1.5"/>
  <rect x="135" y="565" width="70" height="30" fill="#ffffff" stroke="#475569" stroke-width="1"/>
  <text x="170" y="580" text-anchor="middle" font-size="11" font-weight="800" fill="#0f172a">LIFT</text>
  <text x="170" y="592" text-anchor="middle" font-size="9" font-weight="700" fill="#475569">5'0" × 5'0"</text>
  <rect x="122" y="532" width="96" height="14" fill="#0284c7" rx="2"/>
  <text x="170" y="542" text-anchor="middle" font-size="8" font-weight="800" fill="#ffffff">[ON BACKSIDE]</text>

  <!-- B. COMMON GUEST TOILET (x = 220 to 320, y = 530 to 630, 5'0" x 5'0") -->
  <rect x="220" y="530" width="100" height="100" fill="#f1f5f9" stroke="#000000" stroke-width="2.5" />
  <text x="270" y="575" text-anchor="middle" font-size="11" font-weight="800" fill="#0f172a">C.TOILET</text>
  <text x="270" y="593" text-anchor="middle" font-size="10" font-weight="700" fill="#0284c7">5'0" × 5'0"</text>
  <text x="270" y="608" text-anchor="middle" font-size="8" font-weight="600" fill="#64748b">[FLUSH ALIGNED]</text>
  <!-- Door from Hallway -->
  <line x1="320" y1="580" x2="295" y2="580" stroke="#000000" stroke-width="2"/>
  <path d="M 295 580 A 25 25 0 0 1 320 555" fill="none" stroke="#000000" stroke-dasharray="2,2"/>

  <!-- C. CENTRAL LIGHT & AIR OTS (x = 220 to 320, y = 630 to 710, 5'0" x 4'0") -->
  <rect x="220" y="630" width="100" height="80" fill="#e0f2fe" stroke="#0284c7" stroke-width="2" stroke-dasharray="4,4" />
  <line x1="220" y1="630" x2="320" y2="710" stroke="#38bdf8" stroke-width="1.5" />
  <line x1="320" y1="630" x2="220" y2="710" stroke="#38bdf8" stroke-width="1.5" />
  <rect x="240" y="655" width="60" height="28" fill="#ffffff" stroke="#0284c7" stroke-width="1"/>
  <text x="270" y="668" text-anchor="middle" font-size="10" font-weight="800" fill="#0369a1">OTS</text>
  <text x="270" y="679" text-anchor="middle" font-size="8.5" font-weight="700" fill="#0369a1">5'0" × 4'0"</text>

  <!-- D. ENTRANCE FOYER (x = 220 to 360, y = 710 to 780) -->
  <rect x="220" y="710" width="140" height="70" fill="#ffffff" stroke="none" />
  <text x="290" y="740" text-anchor="middle" font-size="10.5" font-weight="800" fill="#0284c7">ENTRANCE FOYER</text>
  <line x1="290" y1="770" x2="290" y2="748" stroke="#0284c7" stroke-width="2" marker-end="url(#arrow)"/>

  <!-- E. DEDICATED STAIRCASE IN FRONT (x = 120 to 220, y = 630 to 780) -->
  <rect x="120" y="630" width="100" height="150" fill="#f8fafc" stroke="#000000" stroke-width="3" />
  <line x1="170" y1="630" x2="170" y2="780" stroke="#000000" stroke-width="2"/>
  <rect x="120" y="630" width="100" height="40" fill="#f1f5f9" stroke="#000000" stroke-width="1.5"/>
  <rect x="125" y="638" width="90" height="22" fill="#0f172a" rx="2"/>
  <text x="170" y="653" text-anchor="middle" font-size="8.5" font-weight="800" fill="#ffffff">STAIRS [IN FRONT]</text>
  
  <!-- Stair Treads -->
  <line x1="120" y1="675" x2="170" y2="675" stroke="#94a3b8" stroke-width="1.2" />
<line x1="120" y1="689" x2="170" y2="689" stroke="#94a3b8" stroke-width="1.2" />
<line x1="120" y1="703" x2="170" y2="703" stroke="#94a3b8" stroke-width="1.2" />
<line x1="120" y1="717" x2="170" y2="717" stroke="#94a3b8" stroke-width="1.2" />
<line x1="120" y1="731" x2="170" y2="731" stroke="#94a3b8" stroke-width="1.2" />
<line x1="120" y1="745" x2="170" y2="745" stroke="#94a3b8" stroke-width="1.2" />
<line x1="120" y1="759" x2="170" y2="759" stroke="#94a3b8" stroke-width="1.2" />
  <line x1="170" y1="675" x2="220" y2="675" stroke="#94a3b8" stroke-width="1.2" />
<line x1="170" y1="689" x2="220" y2="689" stroke="#94a3b8" stroke-width="1.2" />
<line x1="170" y1="703" x2="220" y2="703" stroke="#94a3b8" stroke-width="1.2" />
<line x1="170" y1="717" x2="220" y2="717" stroke="#94a3b8" stroke-width="1.2" />
<line x1="170" y1="731" x2="220" y2="731" stroke="#94a3b8" stroke-width="1.2" />
<line x1="170" y1="745" x2="220" y2="745" stroke="#94a3b8" stroke-width="1.2" />
<line x1="170" y1="759" x2="220" y2="759" stroke="#94a3b8" stroke-width="1.2" />
  
  <line x1="195" y1="770" x2="195" y2="675" stroke="#0284c7" stroke-width="2" marker-end="url(#arrow)" />
  <text x="208" y="725" text-anchor="middle" font-size="9" font-weight="bold" fill="#0284c7" transform="rotate(-90 208 725)">UP</text>

  <!-- F. MASTER SUITE'S BATHROOM UNDER THE STAIRS AREA (x = 120 to 220, y = 675 to 780) -->
  <rect x="120" y="680" width="100" height="100" fill="#f0fdf4" fill-opacity="0.88" stroke="#16a34a" stroke-width="2" stroke-dasharray="4,2"/>
  <rect x="125" y="690" width="90" height="45" fill="#ffffff" stroke="#16a34a" stroke-width="1.2" rx="3"/>
  <text x="170" y="704" text-anchor="middle" font-size="9" font-weight="800" fill="#15803d">MASTER BATH</text>
  <text x="170" y="717" text-anchor="middle" font-size="8" font-weight="700" fill="#16a34a">UNDER STAIRS</text>
  <text x="170" y="729" text-anchor="middle" font-size="8" font-weight="600" fill="#475569">6'6" × 5'0"</text>
  
  <!-- Door into Master Bath from Master Bedroom (opens from Bed 1 at y = 780) -->
  <line x1="145" y1="780" x2="145" y2="755" stroke="#16a34a" stroke-width="2.5"/>
  <path d="M 25 755 A 25 25 0 0 1 50 780" transform="translate(120, 0)" fill="none" stroke="#16a34a" stroke-dasharray="2,2"/>
  <text x="175" y="768" text-anchor="middle" font-size="7.5" font-weight="bold" fill="#15803d">DOOR</text>

  <!-- SACRED POOJA MANDIR (5'8" x 5'3": x = 607 to 720, y = 580 to 685) -->
  <rect x="607" y="580" width="113" height="105" fill="#fef9c3" stroke="#eab308" stroke-width="2.5" />
  <text x="663" y="620" text-anchor="middle" font-size="12" font-weight="800" fill="#854d0e">POOJA</text>
  <text x="663" y="637" text-anchor="middle" font-size="11" font-weight="800" fill="#854d0e">MANDIR</text>
  <text x="663" y="655" text-anchor="middle" font-size="10" font-weight="700" fill="#a16207">5'8" × 5'3"</text>
  <text x="663" y="670" text-anchor="middle" font-size="8" font-weight="600" fill="#a16207">[ISHANYA / EAST]</text>
  <line x1="607" y1="645" x2="607" y2="620" stroke="#eab308" stroke-width="2"/>
  <path d="M 607 620 A 25 25 0 0 1 632 645" fill="none" stroke="#eab308" stroke-dasharray="2,2"/>

  <!-- 5. MASTER BEDROOM SUITE (PURE RECTANGLE: 12'0" x 20'0" = 240 SQ FT: x = 120 to 360, y = 780 to 1180) -->
  <rect x="120" y="780" width="240" height="400" fill="#ffffff" stroke="#000000" stroke-width="3" />
  <rect x="135" y="905" width="210" height="150" fill="#f8fafc" stroke="#e2e8f0" stroke-width="1.5" rx="6"/>
  <text x="240" y="935" text-anchor="middle" font-size="16" font-weight="800" fill="#000000">MASTER SUITE</text>
  <text x="240" y="960" text-anchor="middle" font-size="14" font-weight="800" fill="#0284c7">12'0" × 20'0"</text>
  <text x="240" y="982" text-anchor="middle" font-size="11" font-weight="700" fill="#16a34a">(240 SQ FT • PURE RECTANGLE)</text>
  <text x="240" y="1002" text-anchor="middle" font-size="9.5" font-weight="600" fill="#475569">[Zero Cutout • Bath Under Stairs]</text>
  <text x="240" y="1022" text-anchor="middle" font-size="10" font-weight="700" fill="#d97706">NAIRUTYA / SW • SUPREME VASTU</text>

  <!-- Master Suite Dimension lines -->
  <line x1="135" y1="1155" x2="345" y2="1155" stroke="#000000" stroke-width="1" marker-start="url(#tick)" marker-end="url(#tick)" />
  <text x="240" y="1150" text-anchor="middle" font-size="10" font-weight="700">12'0"</text>
  <line x1="345" y1="795" x2="345" y2="1155" stroke="#000000" stroke-width="1" marker-start="url(#tick)" marker-end="url(#tick)" />
  <text x="330" y="985" text-anchor="middle" font-size="11" font-weight="700" transform="rotate(-90 330 985)">20'0"</text>
  
  <!-- Door into Master Suite from Foyer (y=780, x=280) -->
  <line x1="280" y1="780" x2="280" y2="805" stroke="#000000" stroke-width="2"/>
  <path d="M 280 805 A 25 25 0 0 1 305 780" fill="none" stroke="#000000" stroke-dasharray="2,2"/>
  <text x="295" y="795" font-size="8" font-weight="bold" fill="#0f172a">DOOR</text>
  
  <!-- DIRECT SLIDING GLASS DOOR TO 6' FRONT BALCONY (at y=1180) -->
  <line x1="180" y1="1180" x2="300" y2="1180" stroke="#0284c7" stroke-width="5"/>
  <text x="240" y="1174" text-anchor="middle" font-size="9" font-weight="800" fill="#0284c7">BALCONY SLIDER (6'0")</text>

  <!-- 6. MODULAR KITCHEN (9'1" x 12'6": x = 538 to 720, y = 930 to 1180) -->
  <rect x="538" y="930" width="182" height="250" fill="#ffffff" stroke="#000000" stroke-width="3" />
  <text x="629" y="1030" text-anchor="middle" font-size="14" font-weight="800" fill="#000000">KITCHEN</text>
  <text x="629" y="1052" text-anchor="middle" font-size="13" font-weight="700" fill="#d97706">9'1" × 12'6"</text>
  <text x="629" y="1070" text-anchor="middle" font-size="10" font-weight="600" fill="#b45309">(AGNEYA / SE ZONE)</text>
  <text x="629" y="1088" text-anchor="middle" font-size="9" font-weight="600" fill="#78350f">(114 SQ FT • 100% VASTU)</text>
  <line x1="550" y1="1160" x2="710" y2="1160" stroke="#000000" stroke-width="1" marker-start="url(#tick)" marker-end="url(#tick)" />
  <text x="630" y="1155" text-anchor="middle" font-size="10" font-weight="700">9'1"</text>
  <line x1="550" y1="940" x2="550" y2="1160" stroke="#000000" stroke-width="1" marker-start="url(#tick)" marker-end="url(#tick)" />
  <text x="562" y="1045" text-anchor="middle" font-size="10" font-weight="700" transform="rotate(-90 562 1045)">12'6"</text>
  <line x1="538" y1="960" x2="538" y2="1020" stroke="#ffffff" stroke-width="4"/>

  <!-- 7. GRAND OPEN LIVING & ENTERTAINING HALL (~350 sq ft) -->
  <text x="450" y="850" text-anchor="middle" font-size="16" font-weight="800" fill="#0f172a">GRAND LIVING HALL</text>
  <text x="450" y="875" text-anchor="middle" font-size="14" font-weight="800" fill="#0284c7">14'10" × 20'0"</text>
  <text x="450" y="895" text-anchor="middle" font-size="11" font-weight="700" fill="#16a34a">(~350 SQ FT GREAT ROOM)</text>
  <text x="450" y="915" text-anchor="middle" font-size="10" font-weight="600" fill="#64748b">[Pure Uncluttered Brahmasthan]</text>
  
  <line x1="375" y1="960" x2="525" y2="960" stroke="#000000" stroke-width="1" marker-start="url(#tick)" marker-end="url(#tick)" />
  <text x="450" y="953" text-anchor="middle" font-size="11" font-weight="700">14'10"</text>
  <line x1="375" y1="800" x2="375" y2="1165" stroke="#000000" stroke-width="1" marker-start="url(#tick)" marker-end="url(#tick)" />
  <text x="390" y="1050" text-anchor="middle" font-size="11" font-weight="700" transform="rotate(-90 390 1050)">20'0"</text>

  <!-- Living Hall Sliding Glass Door to 6' Balcony -->
  <line x1="390" y1="1180" x2="510" y2="1180" stroke="#0284c7" stroke-width="5"/>
  <text x="450" y="1174" text-anchor="middle" font-size="9" font-weight="800" fill="#0284c7">FRONT BALCONY SLIDER (6'0")</text>

  <!-- 8. 🌿 GRAND FRONT SHADED RAIN BALCONY (30'0" x 6'0" = 600px x 120px, y = 1180 to 1300) -->
  <rect x="120" y="1180" width="600" height="120" fill="url(#wood_deck)" stroke="#000000" stroke-width="3" />
  
  <!-- Architectural Pergola Glass Shed Canopy Rafters -->
  <line x1="130" y1="1200" x2="710" y2="1200" stroke="#0284c7" stroke-width="2" stroke-dasharray="8,4" />
<line x1="130" y1="1220" x2="710" y2="1220" stroke="#0284c7" stroke-width="2" stroke-dasharray="8,4" />
<line x1="130" y1="1240" x2="710" y2="1240" stroke="#0284c7" stroke-width="2" stroke-dasharray="8,4" />
<line x1="130" y1="1260" x2="710" y2="1260" stroke="#0284c7" stroke-width="2" stroke-dasharray="8,4" />
<line x1="130" y1="1280" x2="710" y2="1280" stroke="#0284c7" stroke-width="2" stroke-dasharray="8,4" />
  
  <!-- Perimeter Tropical Planter Boxes (West, South, East) -->
  <rect x="120" y="1180" width="26" height="98" fill="#dcfce7" stroke="#16a34a" stroke-width="1.8"/>
  <text x="133" y="1235" text-anchor="middle" font-size="8" font-weight="800" fill="#15803d" transform="rotate(-90 133 1235)">🌿 PLANTERS</text>
  <rect x="694" y="1180" width="26" height="98" fill="#dcfce7" stroke="#16a34a" stroke-width="1.8"/>
  <text x="707" y="1235" text-anchor="middle" font-size="8" font-weight="800" fill="#15803d" transform="rotate(90 707 1235)">🌿 PLANTERS</text>
  <rect x="146" y="1278" width="548" height="22" fill="#dcfce7" stroke="#16a34a" stroke-width="1.8"/>
  <text x="420" y="1293" text-anchor="middle" font-size="9.5" font-weight="800" fill="#15803d">🌿 TROPICAL PLANTERS &amp; FLOWERING CREEPERS (BAMBOO • PALMS • JASMINE) 🌿</text>

  <!-- Center Grand Balcony Badge & Labels -->
  <rect x="250" y="1215" width="340" height="52" fill="#ffffff" stroke="#0284c7" stroke-width="2" rx="6" />
  <text x="420" y="1236" text-anchor="middle" font-size="13" font-weight="900" fill="#0284c7">🌿 GRAND SHADED RAIN VERANDAH 🌿</text>
  <text x="420" y="1252" text-anchor="middle" font-size="11.5" font-weight="800" fill="#0f172a">30'0" WIDE × 6'0" DEEP • 180 SQ FT</text>

  <!-- Dimension line across front balcony (6'0") -->
  <line x1="740" y1="1180" x2="740" y2="1300" stroke="#000000" stroke-width="1.5" marker-start="url(#tick)" marker-end="url(#tick)" />
  <text x="755" y="1245" text-anchor="middle" font-size="12" font-weight="800" transform="rotate(90 755 1245)">6'0"</text>

  <!-- FRONT ROAD BANNER -->
  <rect x="120" y="1315" width="600" height="45" fill="#0f172a" />
  <text x="420" y="1343" text-anchor="middle" font-size="14" font-weight="800" fill="#f8fafc" letter-spacing="1">▼ 30 FT WIDE FRONT ROAD (SOUTH FACING) ▼</text>
</svg>
